<svg width="501" height="155" viewBox="0 0 501 155" fill="none" xmlns="http://www.w3.org/2000/svg">
<path d="M126.1 35.2008L71.8997 2.54785C68.3271 0.391928 63.8859 0.391928 60.3193 2.54785L6.11329 35.2008C2.76853 37.2212 0.686523 40.9048 0.686523 44.8101V110.726C0.686523 114.637 2.76853 118.315 6.11329 120.335L60.3193 152.988C62.1057 154.066 64.1076 154.602 66.1095 154.602C68.1115 154.602 70.1134 154.066 71.8997 152.988L126.1 120.335C129.451 118.315 131.526 114.637 131.526 110.726V44.8101C131.526 40.9048 129.451 37.2212 126.1 35.2008ZM67.3353 125.349L56.8391 115.105V94.538L67.3353 104.289V125.349ZM125.059 110.726C125.059 112.383 124.178 113.941 122.761 114.791L97.1302 130.234L80.6035 114.884V123.711L91.3646 133.708L86.5477 136.609L80.6035 131.423V140.194L73.8031 144.291V104.178L85.9132 91.5259H76.9569L70.4399 98.3386L55.989 84.9164L53.8639 87.1155H53.8577L50.3713 90.7189V117.828L67.3353 134.392V147.968C66.1095 148.301 64.779 148.128 63.6579 147.45L40.5218 133.511L47.9135 126.236L43.3738 121.623L34.7994 130.061L28.2392 126.113L42.8379 111.742V87.405L50.6608 79.5882L45.8747 75.2271L36.3701 84.7255V109.032L22.5168 122.664L9.45189 114.791C8.03514 113.941 7.15429 112.383 7.15429 110.726V44.8101C7.15429 43.1593 8.03514 41.5947 9.45189 40.7446L63.6579 8.08549C64.4094 7.62967 65.2595 7.40176 66.1095 7.40176C66.9596 7.40176 67.8035 7.62967 68.5611 8.08549L122.761 40.7446C124.178 41.5947 125.059 43.1593 125.059 44.8101V110.726Z" fill="black"/>
<path d="M55.2377 75.0123L62.0381 68.2119L57.4614 63.6414L50.4515 70.6512L55.2377 75.0123Z" fill="black"/>
<path d="M68.019 50.7307H57.6891V57.1985H68.019V50.7307Z" fill="black"/>
<path d="M49.6567 49.3875L23.2251 75.8252V92.2287L29.6929 98.2345V78.5047L49.6567 58.5347V49.3875Z" fill="black"/>
<path d="M82.496 65.4151C84.4854 63.4257 84.4854 60.2003 82.496 58.2109C80.5066 56.2215 77.2812 56.2215 75.2918 58.2109C73.3024 60.2003 73.3024 63.4257 75.2918 65.4151C77.2812 67.4045 80.5066 67.4045 82.496 65.4151Z" fill="black"/>
<path d="M111.113 60.2717H99.9697L82.5314 43.6526H88.1984L98.8918 53.8409H108.273L90.7855 37.1848H40.6757L27.5061 49.5906V59.7419L43.7186 43.6526H73.1501L95.8735 65.3042V67.2877L85.4019 77.9933H72.8298L68.1668 73.7308L61.428 81.104L70.3843 89.2904L74.8009 84.4611H105.064L112.129 89.1672L113.096 89.814L117.186 92.5489H118.597V70.9958L111.113 60.2717ZM107.023 77.9933H94.4444L102.341 69.9302V66.7394H107.737L112.129 73.0286V81.3935L107.023 77.9933Z" fill="black"/>
<path d="M13.6157 116.111L26.1509 103.779L21.4078 99.3684L13.6157 107.037V116.111Z" fill="black"/>
<path d="M490.012 84.5652L471.515 62.1986H464.628L486.142 36.6836H495.128L475.647 59.7061L475.188 55.1147L499.654 84.5652H490.012ZM459.381 84.5652V36.6836H467.252V84.5652H459.381Z" fill="black"/>
<path d="M401.545 84.5652L389.017 36.6836H397.15L407.71 79.3835L404.89 77.8093H412.039L408.956 79.3835L417.418 38.5857H424.37L414.335 84.5652H401.545ZM430.274 84.5652L419.254 38.5857H426.535L436.177 79.3835L433.16 77.8093H440.309L437.357 79.3835L446.737 36.6836H454.477L443.195 84.5652H430.274Z" fill="black"/>
<path d="M343.994 84.5652L360.785 36.6836H373.838L391.154 84.5652H383.021L367.869 41.9309L371.083 43.4395H363.146L366.557 41.9309L351.865 84.5652H343.994ZM354.882 71.0534L357.374 64.2319H377.445L380.003 71.0534H354.882Z" fill="black"/>
<path d="M331.483 84.5652V36.6836H339.354V84.5652H331.483ZM299.54 84.5652V36.6836H307.411V84.5652H299.54ZM305.902 64.1663V57.1481H332.992V64.1663H305.902Z" fill="black"/>
<path d="M246.516 84.5652V36.6836H259.372L281.607 77.8093H283.772L282.46 78.99V36.6836H289.938V84.5652H276.95L254.715 43.4395H252.551L253.862 42.2589V84.5652H246.516Z" fill="black"/>
<path d="M216.128 66.0685L201.304 36.6836H209.438L221.375 60.8212L219.079 60.0997H226.032L223.605 60.8212L234.69 36.6836H242.364L228.525 66.0685H216.128ZM218.489 84.5652V64.6911H226.163V84.5652H218.489Z" fill="black"/>
<path d="M183.118 85.7456C179.007 85.7456 175.509 85.0897 172.623 83.7779C169.781 82.4223 167.616 80.5858 166.13 78.2682C164.643 75.9069 163.899 73.2395 163.899 70.2661H171.639C171.639 71.6216 172.011 72.9553 172.754 74.2671C173.498 75.579 174.7 76.6722 176.362 77.5467C178.023 78.3775 180.275 78.7929 183.118 78.7929C185.698 78.7929 187.818 78.4213 189.48 77.6779C191.185 76.9345 192.432 75.9506 193.219 74.7263C194.05 73.5019 194.465 72.1464 194.465 70.6596C194.465 68.8231 193.678 67.3363 192.104 66.1994C190.529 65.0188 188.168 64.2973 185.02 64.0349L180.232 63.5758C175.815 63.2259 172.295 61.8704 169.671 59.5091C167.048 57.1041 165.736 53.9557 165.736 50.064C165.736 47.0905 166.436 44.5106 167.835 42.3242C169.278 40.1378 171.289 38.4324 173.869 37.2081C176.449 35.94 179.445 35.3059 182.855 35.3059C186.354 35.3059 189.393 35.94 191.972 37.2081C194.552 38.4324 196.542 40.1815 197.941 42.4554C199.384 44.6855 200.106 47.3528 200.106 50.4575H192.366C192.366 49.0582 192.016 47.7464 191.317 46.522C190.661 45.2539 189.633 44.2263 188.234 43.4392C186.835 42.6521 185.042 42.2586 182.855 42.2586C180.756 42.2586 179.007 42.6303 177.608 43.3736C176.252 44.117 175.225 45.079 174.525 46.2597C173.826 47.4403 173.476 48.7084 173.476 50.064C173.476 51.6819 174.088 53.1249 175.312 54.393C176.537 55.6173 178.417 56.3389 180.953 56.5575L185.676 56.951C189.043 57.2134 191.951 57.9349 194.399 59.1156C196.892 60.2525 198.816 61.7829 200.171 63.7069C201.571 65.631 202.27 67.9485 202.27 70.6596C202.27 73.6331 201.461 76.2567 199.843 78.5306C198.269 80.8044 196.039 82.5754 193.153 83.8435C190.311 85.1116 186.966 85.7456 183.118 85.7456Z" fill="black"/>
<path d="M498.491 119.837V103.103H500.233V119.837H498.491ZM486.984 119.837V103.103H488.726V119.837H486.984ZM488.336 112.318V110.76H498.881V112.318H488.336Z" fill="black"/>
<path d="M470.344 119.837V104.249H472.086V119.837H470.344ZM465.117 104.685V103.103H477.313V104.685H465.117Z" fill="black"/>
<path d="M449.003 120.227C447.475 120.227 446.207 119.936 445.198 119.356C444.19 118.775 443.433 117.965 442.929 116.926C442.425 115.871 442.172 114.664 442.172 113.304V103.103H443.915V113.51C443.915 114.534 444.098 115.428 444.465 116.192C444.847 116.956 445.412 117.552 446.161 117.98C446.925 118.408 447.873 118.622 449.003 118.622C450.119 118.622 451.051 118.416 451.8 118.003C452.549 117.575 453.114 116.979 453.496 116.215C453.878 115.436 454.069 114.534 454.069 113.51V103.103H455.812V113.304C455.812 114.664 455.559 115.871 455.055 116.926C454.551 117.965 453.794 118.775 452.786 119.356C451.792 119.936 450.532 120.227 449.003 120.227Z" fill="black"/>
<path d="M420.405 119.837V103.035H422.147V119.837H420.405ZM430.789 119.837L425.081 112.433H427.121L432.921 119.837H430.789ZM421.436 113.488V111.929H425.929C426.754 111.929 427.442 111.768 427.992 111.447C428.542 111.127 428.955 110.691 429.23 110.141C429.505 109.591 429.643 108.964 429.643 108.261C429.643 107.558 429.505 106.932 429.23 106.381C428.955 105.831 428.542 105.396 427.992 105.075C427.442 104.739 426.754 104.571 425.929 104.571H421.436V103.035H425.631C426.869 103.035 427.916 103.233 428.771 103.631C429.643 104.013 430.3 104.586 430.743 105.35C431.201 106.099 431.431 107.016 431.431 108.101V108.422C431.431 109.507 431.201 110.431 430.743 111.195C430.284 111.944 429.627 112.517 428.771 112.915C427.916 113.297 426.869 113.488 425.631 113.488H421.436Z" fill="black"/>
<path d="M403.765 119.837V104.249H405.507V119.837H403.765ZM398.538 104.685V103.103H410.734V104.685H398.538Z" fill="black"/>
<path d="M368.511 119.837V103.103H370.253V119.837H368.511ZM369.84 119.837V118.255H378.207V119.837H369.84ZM369.84 112.112V110.553H377.428V112.112H369.84ZM369.84 104.685V103.103H377.955V104.685H369.84Z" fill="black"/>
<path d="M355.131 119.837V103.103H356.873V119.837H355.131ZM343.624 119.837V103.103H345.366V119.837H343.624ZM344.976 112.318V110.76H355.521V112.318H344.976Z" fill="black"/>
<path d="M326.984 119.837V104.249H328.726V119.837H326.984ZM321.758 104.685V103.103H333.953V104.685H321.758Z" fill="black"/>
<path d="M292.999 120.227C291.547 120.227 290.286 119.968 289.216 119.448C288.147 118.928 287.26 118.241 286.557 117.385C285.854 116.529 285.327 115.597 284.976 114.588C284.624 113.58 284.448 112.594 284.448 111.631V111.219C284.448 110.195 284.624 109.178 284.976 108.17C285.342 107.146 285.885 106.221 286.603 105.396C287.321 104.571 288.215 103.914 289.285 103.425C290.355 102.92 291.593 102.668 292.999 102.668C294.42 102.668 295.658 102.92 296.712 103.425C297.782 103.914 298.676 104.571 299.394 105.396C300.112 106.221 300.647 107.146 300.999 108.17C301.366 109.178 301.549 110.195 301.549 111.219V111.654C301.549 112.617 301.373 113.603 301.022 114.611C300.686 115.604 300.158 116.529 299.44 117.385C298.737 118.241 297.851 118.928 296.781 119.448C295.711 119.968 294.45 120.227 292.999 120.227ZM292.999 118.623C294.068 118.623 295.024 118.432 295.864 118.05C296.705 117.652 297.415 117.117 297.996 116.445C298.577 115.757 299.02 114.986 299.325 114.13C299.631 113.274 299.784 112.38 299.784 111.448C299.784 110.47 299.631 109.553 299.325 108.697C299.02 107.841 298.569 107.085 297.973 106.428C297.392 105.755 296.682 105.228 295.841 104.846C295.001 104.464 294.053 104.273 292.999 104.273C291.96 104.273 291.02 104.464 290.179 104.846C289.339 105.228 288.62 105.755 288.024 106.428C287.444 107.085 286.993 107.841 286.672 108.697C286.366 109.553 286.213 110.47 286.213 111.448C286.213 112.38 286.366 113.274 286.672 114.13C286.978 114.986 287.421 115.757 288.001 116.445C288.582 117.117 289.293 117.652 290.133 118.05C290.989 118.432 291.944 118.623 292.999 118.623Z" fill="black"/>
<path d="M269.561 119.837V104.249H271.303V119.837H269.561ZM264.334 104.685V103.103H276.53V104.685H264.334Z" fill="black"/>
<path d="M236.487 113.281L231.1 103.103H232.934L237.679 112.204L236.945 111.906H239.49L238.733 112.204L243.226 103.103H244.946L239.88 113.281H236.487ZM237.312 119.837V112.891H239.032V119.837H237.312Z" fill="black"/>
<path d="M216.391 119.837V104.249H218.133V119.837H216.391ZM211.164 104.685V103.103H223.359V104.685H211.164Z" fill="black"/>
<path d="M195.05 120.227C193.522 120.227 192.253 119.936 191.245 119.356C190.236 118.775 189.48 117.965 188.975 116.926C188.471 115.871 188.219 114.664 188.219 113.304V103.103H189.961V113.51C189.961 114.534 190.144 115.428 190.511 116.192C190.893 116.956 191.459 117.552 192.207 117.98C192.972 118.408 193.919 118.622 195.05 118.622C196.166 118.622 197.098 118.416 197.847 118.003C198.595 117.575 199.161 116.979 199.543 116.215C199.925 115.436 200.116 114.534 200.116 113.51V103.103H201.858V113.304C201.858 114.664 201.606 115.871 201.102 116.926C200.597 117.965 199.841 118.775 198.832 119.356C197.839 119.936 196.578 120.227 195.05 120.227Z" fill="black"/>
<path d="M165.183 119.929V118.324H169.745C170.876 118.324 171.861 118.141 172.702 117.774C173.558 117.407 174.276 116.911 174.857 116.284C175.437 115.642 175.873 114.909 176.163 114.084C176.454 113.258 176.599 112.38 176.599 111.447C176.599 110.485 176.446 109.591 176.14 108.765C175.85 107.94 175.414 107.214 174.834 106.588C174.253 105.961 173.535 105.48 172.679 105.144C171.838 104.807 170.86 104.639 169.745 104.639H165.183V103.035H169.561C171.059 103.035 172.358 103.264 173.458 103.722C174.559 104.181 175.476 104.807 176.209 105.602C176.943 106.381 177.485 107.26 177.837 108.238C178.188 109.216 178.364 110.21 178.364 111.218V111.654C178.364 112.647 178.188 113.633 177.837 114.611C177.485 115.589 176.95 116.483 176.232 117.293C175.514 118.088 174.597 118.729 173.481 119.218C172.381 119.692 171.074 119.929 169.561 119.929H165.183ZM163.899 119.929V103.035H165.642V119.929H163.899Z" fill="black"/>
</svg>
